<?xml version="1.0" encoding="UTF-8" standalone="no"?>
<!DOCTYPE svg PUBLIC "-//W3C//DTD SVG 1.1//EN" "http://www.w3.org/Graphics/SVG/1.1/DTD/svg11.dtd">
<svg width="100%" height="100%" viewBox="0 0 4000 4000" version="1.1" xmlns="http://www.w3.org/2000/svg" xmlns:xlink="http://www.w3.org/1999/xlink" xml:space="preserve" xmlns:serif="http://www.serif.com/" style="fill-rule:evenodd;clip-rule:evenodd;stroke-linejoin:round;stroke-miterlimit:2;">
    <g>
        <path d="M3323.33,2000C3323.33,2730.86 2730.86,3323.33 2000,3323.33C1269.14,3323.33 676.666,2730.86 676.666,2000C676.666,1269.14 1269.14,676.666 2000,676.666C2730.86,676.666 3323.33,1269.14 3323.33,2000Z" style="fill:rgb(231,192,255);fill-rule:nonzero;"/>
        <path d="M2655.95,1796.55C2534.95,1783.76 2410.76,1782.88 2287.76,1793.16C1966.94,1819.98 1653.88,1922.95 1424.26,2090.09C1424.15,2090.14 1424.05,2090.24 1423.95,2090.29C1405.61,2103.65 1387.83,2117.37 1370.61,2131.55C1303.31,2163.25 1223.1,2077.91 1315.28,1993.29C1322.68,1986.19 1330.28,1979.21 1337.99,1972.32C1565.55,1767.67 1921.26,1621.29 2299.83,1605.47C2423.3,1600.33 2549.18,1609.01 2673.83,1634.14C2755.47,1655 2778.64,1789.25 2655.95,1796.55Z" style="fill:rgb(255,164,44);fill-rule:nonzero;"/>
        <path d="M2655.95,1796.55L2360.36,3275.18C2333.79,3408.15 2164.24,3442.99 2085.68,3340.12C2081.77,3334.98 2078.07,3329.48 2074.63,3323.68L1370.61,2131.55C1603.68,1939.95 1941.19,1822.14 2287.76,1793.16C2410.76,1782.88 2534.95,1783.76 2655.95,1796.55Z" style="fill:rgb(255,164,44);fill-rule:nonzero;"/>
        <path d="M2228.09,3377.89C2239.4,3371.48 2249.96,3363.62 2259.43,3354.37C2270.28,3354.3 2281.12,3353.13 2291.73,3350.88C2272.71,3365.52 2250.9,3374.04 2230.71,3377.47C2229.85,3377.61 2228.97,3377.75 2228.09,3377.89ZM2103.55,3329.66C2099.58,3324.63 2095.82,3319.16 2092.31,3313.21L2063.64,3264.68C2072.81,3250.33 2082.79,3236.52 2093.49,3223.32L2125.81,3278.05C2129.25,3283.86 2132.95,3289.36 2136.85,3294.5C2137.45,3295.28 2138.06,3296.06 2138.67,3296.83C2129.33,3308.75 2117.8,3320.01 2103.55,3329.66ZM2057.29,3253.93L1953.85,3078.76C1955.42,3076.72 1957.01,3074.68 1958.61,3072.65C1977.76,3077.53 1996.62,3083.6 2015.11,3090.61L2086.5,3211.49C2075.99,3225.09 2066.23,3239.26 2057.29,3253.93ZM2004.7,3072.99C1992.18,3069.03 1979.51,3065.52 1966.72,3062.52C1972.82,3055.02 1979.06,3047.63 1985.43,3040.35L2004.7,3072.99ZM1954.62,3059.83C1950.13,3058.9 1945.64,3058.03 1941.13,3057.23L1829.97,2869C1838.67,2854.14 1848.43,2839.85 1858.89,2826.07L1978.98,3029.43C1970.62,3039.38 1962.5,3049.51 1954.62,3059.83ZM1823.67,2858.33L1758.09,2747.28C1779.02,2751.29 1799.85,2755.89 1820.52,2761.09L1852.42,2815.12C1842.09,2828.98 1832.39,2843.35 1823.67,2858.33ZM1812.06,2746.77C1791.77,2742.29 1771.35,2738.39 1750.86,2735.04L1702.93,2653.88C1711.96,2639.05 1721.5,2624.55 1731.5,2610.36L1812.06,2746.77ZM1696.8,2643.5L1570.48,2429.6C1579,2413.89 1587.98,2398.44 1597.39,2383.26L1725.15,2599.6C1715.23,2613.91 1705.77,2628.55 1696.8,2643.5ZM1564.21,2418.98L1526.99,2355.95C1546.57,2357.73 1566.08,2360.15 1585.51,2363.15L1590.95,2372.36C1581.61,2387.64 1572.67,2403.18 1564.21,2418.98ZM1578.06,2350.53C1558.91,2348.03 1539.67,2346.08 1520.39,2344.77L1397.31,2136.36C1409.5,2126.67 1421.99,2117.16 1434.75,2107.85L1578.06,2350.53Z" style="fill:rgb(255,219,171);fill-rule:nonzero;"/>
        <path d="M1340.78,2117.8C1324.24,2117.8 1309.75,2108.95 1301.83,2097.14C1287.56,2075.9 1293.2,2048.31 1316.63,2021.3C1318.06,2055.17 1345.59,2090.92 1378.08,2099.17C1371.88,2104.04 1365.75,2108.94 1359.69,2113.89C1353.26,2116.59 1346.88,2117.8 1340.78,2117.8Z" style="fill:rgb(255,219,171);fill-rule:nonzero;"/>
        <path d="M2225.99,1887.37C2231.61,1866.14 2232.57,1842.96 2228.81,1819.59C2297.84,1811.7 2367.71,1807.34 2437.62,1806.73C2447.55,1813.45 2457.25,1820.54 2466.67,1827.84C2474.73,1834.1 2482.58,1840.6 2490.22,1847.33C2429.57,1848.14 2369.04,1854.6 2309.68,1866.67C2281.49,1872.37 2253.56,1879.29 2225.99,1887.37ZM2586.9,1850.84C2563.52,1848.82 2540.06,1847.66 2516.61,1847.33C2503.46,1836.08 2489.77,1825.5 2475.6,1815.66C2471.13,1812.6 2466.63,1809.6 2462.1,1806.67C2506.37,1806.84 2550.65,1808.51 2594.72,1811.74L2586.9,1850.84Z" style="fill:rgb(178,114,65);fill-rule:nonzero;"/>
        <path d="M2219.36,1779.42C2216.83,1770.46 2214.21,1761.88 2211.74,1753.79C2201.42,1719.99 2192.5,1690.79 2202.19,1674.29C2209.02,1662.68 2226.93,1653.64 2255.44,1647.42C2323.17,1637.2 2388.86,1632.09 2452.17,1632.09C2521.14,1632.09 2587.26,1638.15 2650.07,1650.28C2688.46,1682.34 2698.04,1744.33 2656.9,1775.91C2656.71,1775.92 2656.52,1775.94 2656.33,1775.95C2589.76,1768.98 2522.6,1765.58 2455.39,1765.58C2376.38,1765.58 2297.36,1770.29 2219.36,1779.42Z" style="fill:rgb(178,114,65);fill-rule:nonzero;"/>
        <path d="M2258.45,3354.37C2214.21,3354.37 2169.72,3335.97 2138.67,3296.83C2178.61,3245.84 2178.32,3182.85 2178.32,3182.85L2178.41,3181.66C2202.59,3199.82 2225.56,3219.51 2246.97,3240.69C2264.62,3258.2 2281.28,3276.76 2296.25,3296.39C2288.11,3319.45 2275.3,3338.87 2259.43,3354.37L2258.45,3354.37Z" style="fill:rgb(178,114,65);fill-rule:nonzero;"/>
        <path d="M2207.63,3379.39C2172.33,3379.39 2132.37,3366.14 2103.55,3329.66C2117.8,3320.01 2129.33,3308.75 2138.67,3296.83C2169.72,3335.97 2214.21,3354.37 2258.45,3354.37L2259.43,3354.37C2249.96,3363.62 2239.4,3371.48 2228.09,3377.89C2221.54,3378.86 2214.68,3379.39 2207.63,3379.39Z" style="fill:rgb(178,153,154);fill-rule:nonzero;"/>
        <path d="M2303.64,3267.77C2290.53,3252.73 2276.58,3238.5 2262.11,3224.95C2236.46,3201.04 2208.98,3179.28 2180.15,3159.61L2181.74,3139.41C2189.64,3133.62 2197.71,3128.06 2205.93,3122.76C2237.04,3102.67 2270.33,3086.05 2304.95,3073.32C2308.41,3072.09 2311.8,3070.7 2315.28,3069.51C2322.86,3079.35 2330.19,3089.37 2337.27,3099.58L2303.64,3267.77ZM2183.52,3116.71L2196.88,2947.11C2217.19,2963.99 2236.66,2981.85 2255.16,3000.64C2271.16,3016.88 2286.42,3033.82 2300.87,3051.4C2299.61,3051.93 2298.34,3052.45 2297.07,3052.96C2261.38,3067.48 2227.42,3085.93 2195.92,3107.83C2191.74,3110.73 2187.61,3113.68 2183.52,3116.71ZM2343.69,3067.46C2342.29,3065.63 2340.87,3063.81 2339.45,3061.99C2341.32,3061.47 2343.2,3060.98 2345.08,3060.5L2343.69,3067.46ZM2324,3042.88C2307.17,3022.75 2289.33,3003.49 2270.59,2985.18C2247.88,2962.98 2223.87,2942.18 2198.8,2922.8L2203.57,2862.13C2237.24,2843.37 2272.36,2827.41 2308.69,2815.38C2336.16,2806.29 2364.41,2799.51 2392.88,2795.82C2393.63,2796.75 2394.38,2797.69 2395.12,2798.62C2395.73,2799.43 2396.34,2800.23 2396.95,2801.04L2350.23,3034.76C2341.48,3037.32 2332.67,3039.63 2324.15,3042.83L2324,3042.88ZM2205.38,2839.19L2221.3,2637.11C2230.63,2643.95 2239.87,2650.91 2249.01,2657.98C2284.89,2685.84 2319.26,2715.63 2350.71,2747.98C2359.21,2756.54 2367.32,2765.42 2375.17,2774.5C2350.05,2779.26 2325.43,2786.19 2301.58,2794.73C2268.15,2806.72 2236.08,2821.82 2205.38,2839.19ZM2403.2,2769.74C2391.84,2756.41 2380.08,2743.5 2367.65,2731.32C2334.72,2698.38 2299.19,2668.48 2262.27,2640.63C2249.42,2630.98 2236.41,2621.56 2223.24,2612.37L2228.22,2549.26C2256.21,2536.66 2284.75,2525.38 2313.77,2515.66C2345.04,2505.28 2376.91,2496.81 2409.13,2491.37C2423.01,2507.08 2436.37,2523.2 2449.18,2539.75L2403.2,2769.74ZM2230.03,2526.18L2244.71,2339.78C2263.95,2354.42 2282.77,2369.6 2301.12,2385.33C2332.49,2412.25 2362.48,2440.8 2390.62,2470.98C2362.05,2477.11 2334.08,2485.36 2306.7,2495C2280.64,2504.26 2255.09,2514.7 2230.03,2526.18ZM2455.46,2508.33C2449.6,2501.29 2443.64,2494.31 2437.6,2487.43C2445.06,2486.63 2452.54,2486.02 2460,2485.63L2455.46,2508.33ZM2418.06,2465.82C2385.87,2431.23 2351.36,2398.85 2315.22,2368.66C2292.96,2350.08 2270.07,2332.31 2246.64,2315.32L2253.18,2232.26C2273.56,2225.95 2294.16,2220.39 2314.95,2215.64C2365.92,2203.97 2418.06,2197.37 2470.17,2196.67C2483.21,2212.47 2495.85,2228.6 2508.1,2245.01L2464.99,2460.67C2449.21,2461.54 2433.53,2463.34 2418.06,2465.82ZM2514.28,2214.11C2509.6,2208.34 2504.88,2202.61 2500.11,2196.92C2505.93,2197.1 2511.75,2197.36 2517.56,2197.69L2514.28,2214.11ZM2254.96,2209.75L2270.9,2007.35C2293.16,2023.7 2314.79,2040.89 2335.71,2058.89C2376.77,2094.15 2414.97,2132.53 2450.41,2173.33C2402.99,2175.93 2355.88,2183.16 2309.94,2194.39C2291.43,2198.9 2273.09,2204.03 2254.96,2209.75ZM2522.49,2173.04C2511.48,2172.52 2500.46,2172.26 2489.45,2172.26C2485.94,2172.26 2482.43,2172.28 2478.92,2172.34C2438.43,2126.55 2394.56,2083.8 2347.27,2045.12C2323.11,2025.31 2298.1,2006.56 2272.35,1988.92L2278.41,1912C2261.96,1933.33 2238.84,1941.7 2217.83,1944.27C2212.81,1944.91 2207.92,1945.21 2203.28,1945.29C2201.3,1944.14 2199.33,1943 2197.35,1941.86C2204.97,1933.51 2211.75,1923.45 2217.28,1911.55C2249.09,1902.13 2281.33,1894.28 2313.9,1888.1C2372.57,1876.89 2432.21,1871.29 2491.83,1871.29C2499.85,1871.29 2507.87,1871.39 2515.88,1871.6C2518.6,1874.36 2521.28,1877.15 2523.94,1879.97C2541.06,1897.82 2556.15,1917.42 2569.49,1937.92L2522.49,2173.04ZM2575.58,1907.5C2565.77,1895.3 2555.35,1883.66 2544.27,1872.74C2556.85,1873.43 2569.42,1874.38 2581.96,1875.58L2575.58,1907.5Z" style="fill:rgb(178,114,65);fill-rule:nonzero;"/>
        <path d="M1340.59,2158.88C1311.98,2158.89 1284.51,2145.09 1267.7,2120.06C1245.41,2086.88 1242.56,2032.17 1301.38,1978.17C1309.74,1970.49 1322.75,1971.05 1330.42,1979.41C1338.1,1987.77 1337.54,2000.77 1329.18,2008.44C1295.51,2039.35 1285.28,2072.51 1301.83,2097.14C1312.67,2113.3 1335.82,2123.92 1359.69,2113.89C1671.86,1858.65 2180.23,1726.14 2656.33,1775.95C2695.14,1773.2 2717.98,1755.98 2720.72,1727.34C2723.41,1699.17 2704.3,1663.15 2668.72,1654.06C2657.73,1651.25 2651.09,1640.06 2653.9,1629.06C2656.7,1618.06 2667.88,1611.42 2678.9,1614.24C2730.31,1627.37 2766.65,1678.77 2761.64,1731.25C2757.94,1769.96 2728.55,1812.83 2657.15,1817.09C2656.03,1817.16 2654.89,1817.13 2653.77,1817.01C2186.49,1767.68 1687.93,1897.36 1383.64,2147.41C1382.33,2148.49 1380.88,2149.4 1379.35,2150.12C1366.79,2156.04 1353.57,2158.88 1340.59,2158.88Z" style="fill:rgb(0,0,114);fill-rule:nonzero;"/>
        <path d="M2206.46,3420.65C2144.95,3420.65 2089.42,3389.17 2056.92,3334.11L1352.9,2141.98C1347.13,2132.21 1350.37,2119.61 1360.14,2113.83C1369.9,2108.06 1382.52,2111.31 1388.29,2121.08L2092.31,3313.21C2127.03,3372.01 2186.54,3384.95 2230.71,3377.47C2274.86,3369.98 2326.8,3338.12 2340.19,3271.15L2635.77,1792.54C2638,1781.42 2648.84,1774.21 2659.95,1776.42C2671.09,1778.64 2678.3,1789.47 2676.08,1800.6L2380.49,3279.21C2365.87,3352.34 2311.11,3405.52 2237.59,3417.99C2227.1,3419.77 2216.7,3420.65 2206.46,3420.65Z" style="fill:rgb(0,0,114);fill-rule:nonzero;"/>
        <path d="M1597.39,2383.26L1590.95,2372.36C1592.51,2369.82 1594.07,2367.3 1595.65,2364.76C1599.71,2365.43 1603.76,2366.12 1607.81,2366.84C1604.28,2372.28 1600.81,2377.75 1597.39,2383.26Z" style="fill:rgb(178,114,65);fill-rule:nonzero;"/>
        <path d="M1570.48,2429.6L1564.21,2418.98C1572.67,2403.18 1581.61,2387.64 1590.95,2372.36L1597.39,2383.26C1587.98,2398.44 1579,2413.89 1570.48,2429.6Z" style="fill:rgb(178,153,154);fill-rule:nonzero;"/>
        <path d="M1560.76,2448.04L1551.56,2443.46C1555.65,2435.23 1559.87,2427.07 1564.21,2418.98L1570.48,2429.6C1567.17,2435.71 1563.93,2441.85 1560.76,2448.04Z" style="fill:rgb(0,0,114);fill-rule:nonzero;"/>
        <path d="M1614.92,2356.03C1610.78,2355.33 1606.62,2354.66 1602.47,2354.02C1639.69,2296.16 1683,2242.22 1730.57,2192.51C1734.89,2195.49 1739.05,2197.89 1742.89,2199.82C1695.61,2247.81 1652.35,2299.99 1614.92,2356.03ZM1948.92,2034.17C1946.65,2028.89 1944.02,2023.76 1941.08,2018.86C1961.36,2005.77 1982.05,1993.3 2003.12,1981.48C2022.3,1970.72 2041.82,1960.52 2061.63,1950.92C2066.97,1955.74 2072.88,1959.94 2079.28,1963.4C2056.41,1973.88 2033.9,1985.17 2011.81,1997.22C1990.46,2008.86 1969.49,2021.19 1948.92,2034.17Z" style="fill:rgb(178,114,65);fill-rule:nonzero;"/>
        <path d="M2217.28,1911.55C2219.95,1905.79 2222.34,1899.6 2224.39,1892.97C2224.96,1891.12 2225.49,1889.25 2225.99,1887.37C2253.56,1879.29 2281.49,1872.37 2309.68,1866.67C2369.04,1854.6 2429.57,1848.14 2490.22,1847.33C2499.07,1855.12 2507.63,1863.22 2515.88,1871.6C2507.87,1871.39 2499.85,1871.29 2491.83,1871.29C2432.21,1871.29 2372.57,1876.89 2313.9,1888.1C2281.33,1894.28 2249.09,1902.13 2217.28,1911.55Z" style="fill:rgb(124,80,80);fill-rule:nonzero;"/>
        <path d="M2618.34,1879.76C2606.24,1878.13 2594.11,1876.73 2581.96,1875.58L2586.9,1850.84C2599.07,1851.89 2611.23,1853.17 2623.35,1854.68L2618.34,1879.76Z" style="fill:rgb(178,114,65);fill-rule:nonzero;"/>
        <path d="M2581.96,1875.58C2569.42,1874.38 2556.85,1873.43 2544.27,1872.74C2542.09,1870.59 2539.89,1868.47 2537.66,1866.38C2530.81,1859.83 2523.79,1853.48 2516.61,1847.33C2540.06,1847.66 2563.52,1848.82 2586.9,1850.84L2581.96,1875.58Z" style="fill:rgb(124,80,80);fill-rule:nonzero;"/>
        <path d="M2633.8,1881.97C2628.65,1881.19 2623.5,1880.45 2618.34,1879.76L2623.35,1854.68C2628.09,1855.27 2632.83,1855.9 2637.56,1856.56L2633.8,1881.97Z" style="fill:rgb(0,0,114);fill-rule:nonzero;"/>
        <path d="M1731.5,2610.36L1725.15,2599.6C1761.03,2547.79 1802.82,2500.11 1848.06,2456.32C1853.31,2451.26 1858.62,2446.24 1863.98,2441.28C1868.97,2443.26 1873.96,2445.26 1878.93,2447.29C1871.8,2453.62 1864.75,2460.05 1857.79,2466.56C1811.28,2510.29 1768.29,2558.17 1731.5,2610.36Z" style="fill:rgb(178,114,65);fill-rule:nonzero;"/>
        <path d="M1702.93,2653.88L1696.8,2643.5C1705.77,2628.55 1715.23,2613.91 1725.15,2599.6L1731.5,2610.36C1721.5,2624.55 1711.96,2639.05 1702.93,2653.88Z" style="fill:rgb(178,153,154);fill-rule:nonzero;"/>
        <path d="M1692.52,2671.53L1683.53,2666.55C1687.82,2658.78 1692.24,2651.1 1696.8,2643.5L1702.93,2653.88C1699.38,2659.71 1695.91,2665.6 1692.52,2671.53Z" style="fill:rgb(0,0,114);fill-rule:nonzero;"/>
        <path d="M1892.34,2435.58C1887.2,2433.53 1882.05,2431.52 1876.88,2429.53C1933.59,2378.65 1995.58,2333.61 2061.68,2295.46C2083.38,2282.97 2105.53,2271.22 2128.11,2260.31C2134.62,2264.28 2141.09,2268.3 2147.53,2272.38C2121.35,2284.17 2095.66,2297.13 2070.56,2311.11C2007.24,2346.43 1947.44,2388.24 1892.34,2435.58ZM2169.04,2263.01C2162.34,2258.81 2155.61,2254.67 2148.84,2250.58C2183.33,2234.88 2218.75,2221.16 2254.96,2209.75L2253.18,2232.26C2224.68,2241.09 2196.6,2251.39 2169.04,2263.01Z" style="fill:rgb(178,114,65);fill-rule:nonzero;"/>
        <path d="M2253.18,2232.26L2254.96,2209.75C2273.09,2204.03 2291.43,2198.9 2309.94,2194.39C2355.88,2183.16 2402.99,2175.93 2450.41,2173.33C2457.09,2181.03 2463.68,2188.81 2470.17,2196.67C2418.06,2197.37 2365.92,2203.97 2314.95,2215.64C2294.16,2220.39 2273.56,2225.95 2253.18,2232.26Z" style="fill:rgb(124,80,80);fill-rule:nonzero;"/>
        <path d="M2554.16,2200.8C2541.99,2199.42 2529.79,2198.38 2517.56,2197.69L2522.49,2173.04C2534.73,2173.63 2546.95,2174.54 2559.16,2175.8L2554.16,2200.8Z" style="fill:rgb(178,114,65);fill-rule:nonzero;"/>
        <path d="M2517.56,2197.69C2511.75,2197.36 2505.93,2197.1 2500.11,2196.92C2493.15,2188.64 2486.09,2180.44 2478.92,2172.34C2482.43,2172.28 2485.94,2172.26 2489.45,2172.26C2500.46,2172.26 2511.48,2172.52 2522.49,2173.04L2517.56,2197.69Z" style="fill:rgb(124,80,80);fill-rule:nonzero;"/>
        <path d="M2574.85,2203.51C2567.97,2202.49 2561.07,2201.59 2554.16,2200.8L2559.16,2175.8C2565.59,2176.46 2572.01,2177.22 2578.43,2178.07L2574.85,2203.51Z" style="fill:rgb(0,0,114);fill-rule:nonzero;"/>
        <path d="M1858.89,2826.07L1852.42,2815.12C1856.98,2809.02 1861.65,2803.02 1866.42,2797.11C1871.53,2790.82 1876.75,2784.63 1882.07,2778.54C1886.48,2779.93 1890.89,2781.36 1895.28,2782.81C1888.64,2790.02 1882.14,2797.38 1875.84,2804.88C1870.03,2811.81 1864.36,2818.87 1858.89,2826.07Z" style="fill:rgb(178,114,65);fill-rule:nonzero;"/>
        <path d="M1829.97,2869L1823.67,2858.33C1832.39,2843.35 1842.09,2828.98 1852.42,2815.12L1858.89,2826.07C1848.43,2839.85 1838.67,2854.14 1829.97,2869Z" style="fill:rgb(178,153,154);fill-rule:nonzero;"/>
        <path d="M1817.38,2892.51L1808.06,2888.2C1812.79,2877.97 1818.03,2868.03 1823.67,2858.33L1829.97,2869C1825.48,2876.68 1821.27,2884.51 1817.38,2892.51Z" style="fill:rgb(0,0,114);fill-rule:nonzero;"/>
        <path d="M1905.66,2771.79C1901.08,2770.35 1896.49,2768.93 1891.89,2767.54C1907.39,2750.56 1923.69,2734.33 1940.53,2718.72C1993.38,2669.93 2051.37,2626.98 2112.52,2589.17C2119.17,2585.09 2125.87,2581.07 2132.6,2577.12C2138.52,2580.82 2144.41,2584.55 2150.28,2588.33C2140.71,2593.61 2131.22,2599.03 2121.8,2604.58C2060.93,2640.71 2002.94,2682.06 1950.04,2729.16C1934.74,2742.84 1919.88,2757.02 1905.66,2771.79ZM2170.63,2577.36C2164.52,2573.48 2158.39,2569.65 2152.22,2565.86C2177.6,2551.61 2203.53,2538.32 2230.03,2526.18L2228.22,2549.26C2208.76,2558.02 2189.55,2567.41 2170.63,2577.36Z" style="fill:rgb(178,114,65);fill-rule:nonzero;"/>
        <path d="M2228.22,2549.26L2230.03,2526.18C2255.09,2514.7 2280.64,2504.26 2306.7,2495C2334.08,2485.36 2362.05,2477.11 2390.62,2470.98C2396.88,2477.7 2403.06,2484.5 2409.13,2491.37C2376.91,2496.81 2345.04,2505.28 2313.77,2515.66C2284.75,2525.38 2256.21,2536.66 2228.22,2549.26Z" style="fill:rgb(124,80,80);fill-rule:nonzero;"/>
        <path d="M2460,2485.63L2464.99,2460.67C2471.83,2460.3 2478.7,2460.1 2485.58,2460.1C2491.12,2460.1 2496.68,2460.23 2502.24,2460.5L2497.23,2485.59C2491.27,2485.26 2485.29,2485.11 2479.3,2485.11C2472.88,2485.11 2466.45,2485.29 2460,2485.63Z" style="fill:rgb(178,114,65);fill-rule:nonzero;"/>
        <path d="M2437.6,2487.43C2431.18,2480.13 2424.67,2472.93 2418.06,2465.82C2433.53,2463.34 2449.21,2461.54 2464.99,2460.67L2460,2485.63C2452.54,2486.02 2445.06,2486.63 2437.6,2487.43Z" style="fill:rgb(124,80,80);fill-rule:nonzero;"/>
        <path d="M2518.72,2487.53C2511.6,2486.62 2504.43,2485.98 2497.23,2485.59L2502.24,2460.5C2508.81,2460.81 2515.38,2461.32 2521.97,2462.05L2518.72,2487.53Z" style="fill:rgb(0,0,114);fill-rule:nonzero;"/>
        <path d="M1953.85,3078.76L1948.84,3070.28C1952.1,3071.03 1955.36,3071.83 1958.61,3072.65C1957.01,3074.68 1955.42,3076.72 1953.85,3078.76Z" style="fill:rgb(178,153,154);fill-rule:nonzero;"/>
        <path d="M1943.01,3093.14L1934.65,3087.17C1938.72,3081.35 1942.86,3075.58 1947.08,3069.87C1947.66,3070.01 1948.25,3070.14 1948.84,3070.28L1953.85,3078.76C1950.18,3083.51 1946.57,3088.31 1943.01,3093.14Z" style="fill:rgb(0,0,114);fill-rule:nonzero;"/>
        <path d="M1985.43,3040.35L1978.98,3029.43C1997.29,3007.66 2016.71,2986.81 2037.07,2966.92C2064.27,2940.38 2093.17,2915.52 2123.69,2892.72C2128.71,2896.05 2133.69,2899.43 2138.64,2902.86C2106.38,2925.39 2075.71,2950.31 2046.81,2977.15C2025.31,2997.14 2004.78,3018.23 1985.43,3040.35Z" style="fill:rgb(178,114,65);fill-rule:nonzero;"/>
        <path d="M1966.72,3062.52C1962.7,3061.57 1958.66,3060.68 1954.62,3059.83C1962.5,3049.51 1970.62,3039.38 1978.98,3029.43L1985.43,3040.35C1979.06,3047.63 1972.82,3055.02 1966.72,3062.52Z" style="fill:rgb(178,153,154);fill-rule:nonzero;"/>
        <path d="M2155.47,2891.42C2150.27,2887.89 2145.03,2884.43 2139.76,2881.01C2146.41,2876.28 2153.15,2871.65 2159.95,2867.12C2174.74,2857.31 2189.89,2847.96 2205.38,2839.19L2203.57,2862.13C2192.12,2868.52 2180.83,2875.23 2169.72,2882.22C2164.94,2885.23 2160.19,2888.3 2155.47,2891.42Z" style="fill:rgb(178,114,65);fill-rule:nonzero;"/>
        <path d="M2203.57,2862.13L2205.38,2839.19C2236.08,2821.82 2268.15,2806.72 2301.58,2794.73C2325.43,2786.19 2350.05,2779.26 2375.17,2774.5C2381.22,2781.51 2387.1,2788.63 2392.88,2795.82C2364.41,2799.51 2336.16,2806.29 2308.69,2815.38C2272.36,2827.41 2237.24,2843.37 2203.57,2862.13Z" style="fill:rgb(124,80,80);fill-rule:nonzero;"/>
        <path d="M2422.06,2793.15C2419.6,2789.86 2417.11,2786.6 2414.58,2783.37C2410.93,2778.91 2407.25,2774.49 2403.52,2770.11C2415.9,2768.63 2428.36,2767.72 2440.88,2767.44L2435.83,2792.7C2431.24,2792.76 2426.65,2792.92 2422.06,2793.15Z" style="fill:rgb(178,114,65);fill-rule:nonzero;"/>
        <path d="M2458.7,2793.16C2452.62,2792.83 2446.54,2792.67 2440.44,2792.67C2438.91,2792.67 2437.37,2792.68 2435.83,2792.7L2440.88,2767.44C2443.64,2767.37 2446.4,2767.34 2449.17,2767.34C2452.72,2767.34 2456.27,2767.39 2459.83,2767.5L2458.7,2793.16Z" style="fill:rgb(0,0,114);fill-rule:nonzero;"/>
        <path d="M2093.49,3223.32L2086.5,3211.49C2102.34,3190.98 2119.87,3171.74 2138.82,3153.97C2141.87,3155.95 2144.91,3157.96 2147.93,3159.99C2149.36,3160.95 2150.79,3161.92 2152.21,3162.89C2130.92,3181.23 2111.21,3201.45 2093.49,3223.32Z" style="fill:rgb(178,114,65);fill-rule:nonzero;"/>
        <path d="M2063.64,3264.68L2057.29,3253.93C2066.23,3239.26 2075.99,3225.09 2086.5,3211.49L2093.49,3223.32C2082.79,3236.52 2072.81,3250.33 2063.64,3264.68Z" style="fill:rgb(178,153,154);fill-rule:nonzero;"/>
        <path d="M2053.08,3282.07L2044.08,3277.12C2048.25,3269.26 2052.66,3261.53 2057.29,3253.93L2063.64,3264.68C2059.99,3270.39 2056.47,3276.19 2053.08,3282.07Z" style="fill:rgb(0,0,114);fill-rule:nonzero;"/>
        <path d="M2166.87,3150.77C2163.84,3148.79 2160.79,3146.84 2157.73,3144.91C2155.98,3143.81 2154.23,3142.72 2152.47,3141.63C2162.48,3132.92 2172.85,3124.6 2183.52,3116.71L2181.74,3139.41C2176.71,3143.1 2171.75,3146.88 2166.87,3150.77Z" style="fill:rgb(178,114,65);fill-rule:nonzero;"/>
        <path d="M2181.74,3139.41L2183.52,3116.71C2187.61,3113.68 2191.74,3110.73 2195.92,3107.83C2227.42,3085.93 2261.38,3067.48 2297.07,3052.96C2298.34,3052.45 2299.61,3051.93 2300.87,3051.4C2305.76,3057.36 2310.57,3063.4 2315.28,3069.51C2311.8,3070.7 2308.41,3072.09 2304.95,3073.32C2270.33,3086.05 2237.04,3102.67 2205.93,3122.76C2197.71,3128.06 2189.64,3133.62 2181.74,3139.41Z" style="fill:rgb(124,80,80);fill-rule:nonzero;"/>
        <path d="M2345.08,3060.5L2350.23,3034.76C2350.76,3034.6 2351.3,3034.44 2351.84,3034.28C2356.46,3032.84 2361.16,3031.72 2365.9,3030.68L2380.07,3027.41C2383.12,3026.7 2386.19,3026.2 2389.26,3025.69L2384.03,3051.83L2371.18,3054.34C2366.67,3055.17 2362.17,3056.07 2357.75,3057.3C2353.54,3058.4 2349.3,3059.42 2345.08,3060.5Z" style="fill:rgb(178,114,65);fill-rule:nonzero;"/>
        <path d="M2339.45,3061.99C2334.4,3055.54 2329.25,3049.17 2324,3042.88L2324.15,3042.83C2332.67,3039.63 2341.48,3037.32 2350.23,3034.76L2345.08,3060.5C2343.2,3060.98 2341.32,3061.47 2339.45,3061.99Z" style="fill:rgb(124,80,80);fill-rule:nonzero;"/>
        <path d="M2384.03,3051.83L2389.26,3025.69C2390.94,3025.42 2392.63,3025.14 2394.31,3024.83L2408.34,3022.48L2412.25,3047.87L2398.32,3049.72C2393.78,3050.4 2389.16,3050.81 2384.67,3051.71L2384.03,3051.83Z" style="fill:rgb(0,0,114);fill-rule:nonzero;"/>
        <path d="M2425.55,2844.15C2417.08,2829.28 2407.37,2814.94 2396.95,2801.04L2403.2,2769.74C2403.31,2769.87 2403.42,2769.99 2403.52,2770.11C2407.25,2774.49 2410.93,2778.91 2414.58,2783.37C2417.11,2786.6 2419.6,2789.86 2422.06,2793.15C2425.71,2798.05 2429.28,2803.02 2432.76,2808.07L2425.55,2844.15ZM2221.3,2637.11C2198.15,2620.15 2174.44,2603.9 2150.28,2588.33C2144.41,2584.55 2138.52,2580.82 2132.6,2577.12C2095.47,2553.91 2057.31,2532.25 2018.45,2512C1972.98,2488.34 1926.43,2466.65 1878.93,2447.29C1873.96,2445.26 1868.97,2443.26 1863.98,2441.28C1831.83,2428.57 1799.26,2416.92 1766.3,2406.47C1714.39,2390.05 1661.44,2376.34 1607.81,2366.84C1603.76,2366.12 1599.71,2365.43 1595.65,2364.76C1592.28,2364.21 1588.89,2363.67 1585.51,2363.15L1578.06,2350.53C1586.21,2351.59 1594.34,2352.75 1602.47,2354.02C1606.62,2354.66 1610.78,2355.33 1614.92,2356.03C1667.53,2364.85 1719.48,2377.62 1770.49,2392.98C1806.4,2403.82 1841.88,2416.05 1876.88,2429.53C1882.05,2431.52 1887.2,2433.53 1892.34,2435.58C1937.97,2453.7 1982.76,2473.94 2026.64,2495.99C2069.4,2517.53 2111.38,2540.73 2152.22,2565.86C2158.39,2569.65 2164.52,2573.48 2170.63,2577.36C2188.41,2588.65 2205.96,2600.31 2223.24,2612.37L2221.3,2637.11Z" style="fill:rgb(178,114,65);fill-rule:nonzero;"/>
        <path d="M1585.51,2363.15C1566.08,2360.15 1546.57,2357.73 1526.99,2355.95L1520.39,2344.77C1539.67,2346.08 1558.91,2348.03 1578.06,2350.53L1585.51,2363.15Z" style="fill:rgb(178,153,154);fill-rule:nonzero;"/>
        <path d="M2396.95,2801.04C2396.34,2800.23 2395.73,2799.43 2395.12,2798.62C2394.38,2797.69 2393.63,2796.75 2392.88,2795.82C2387.1,2788.63 2381.22,2781.51 2375.17,2774.5C2367.32,2765.42 2359.21,2756.54 2350.71,2747.98C2319.26,2715.63 2284.89,2685.84 2249.01,2657.98C2239.87,2650.91 2230.63,2643.95 2221.3,2637.11L2223.24,2612.37C2236.41,2621.56 2249.42,2630.98 2262.27,2640.63C2299.19,2668.48 2334.72,2698.38 2367.65,2731.32C2380.08,2743.5 2391.84,2756.41 2403.2,2769.74L2396.95,2801.04Z" style="fill:rgb(124,80,80);fill-rule:nonzero;"/>
        <path d="M2431.1,2854.31C2429.31,2850.89 2427.46,2847.51 2425.55,2844.15L2432.76,2808.07C2440.36,2819.12 2447.48,2830.57 2453.93,2842.54L2431.1,2854.31ZM1526.99,2355.95C1517.54,2355.09 1508.08,2354.39 1498.6,2353.84L1499.1,2343.57C1506.2,2343.89 1513.3,2344.28 1520.39,2344.77L1526.99,2355.95Z" style="fill:rgb(0,0,114);fill-rule:nonzero;"/>
        <path d="M2365.63,3143.88C2356.73,3128.78 2347.26,3114 2337.27,3099.58L2343.69,3067.46C2353.83,3080.66 2363.54,3094.2 2372.79,3108.07L2365.63,3143.88ZM2196.88,2947.11C2178.14,2931.53 2158.7,2916.77 2138.64,2902.86C2133.69,2899.43 2128.71,2896.05 2123.69,2892.72C2115.86,2887.52 2107.94,2882.46 2099.95,2877.51C2035.9,2837.93 1966.96,2806.51 1895.28,2782.81C1890.89,2781.36 1886.48,2779.93 1882.07,2778.54C1861.74,2772.11 1841.21,2766.3 1820.52,2761.09L1812.06,2746.77C1838.91,2752.69 1865.54,2759.6 1891.89,2767.54C1896.49,2768.93 1901.08,2770.35 1905.66,2771.79C1912.19,2773.86 1918.7,2775.99 1925.19,2778.18C1989.08,2799.78 2051.02,2827.65 2109.26,2862.13C2119.54,2868.21 2129.71,2874.51 2139.76,2881.01C2145.03,2884.43 2150.27,2887.89 2155.47,2891.42C2170.22,2901.43 2184.68,2911.89 2198.8,2922.8L2196.88,2947.11Z" style="fill:rgb(178,114,65);fill-rule:nonzero;"/>
        <path d="M1820.52,2761.09C1799.85,2755.89 1779.02,2751.29 1758.09,2747.28L1750.86,2735.04C1771.35,2738.39 1791.77,2742.29 1812.06,2746.77L1820.52,2761.09Z" style="fill:rgb(178,153,154);fill-rule:nonzero;"/>
        <path d="M2337.27,3099.58C2330.19,3089.37 2322.86,3079.35 2315.28,3069.51C2310.57,3063.4 2305.76,3057.36 2300.87,3051.4C2286.42,3033.82 2271.16,3016.88 2255.16,3000.64C2236.66,2981.85 2217.19,2963.99 2196.88,2947.11L2198.8,2922.8C2223.87,2942.18 2247.88,2962.98 2270.59,2985.18C2289.33,3003.49 2307.17,3022.75 2324,3042.88C2329.25,3049.17 2334.4,3055.54 2339.45,3061.99C2340.87,3063.81 2342.29,3065.63 2343.69,3067.46L2337.27,3099.58Z" style="fill:rgb(124,80,80);fill-rule:nonzero;"/>
        <path d="M2373.84,3158.18C2371.16,3153.38 2368.42,3148.62 2365.63,3143.88L2372.79,3108.07C2380.94,3120.29 2388.74,3132.76 2396.16,3145.46L2373.84,3158.18ZM1758.09,2747.28C1747.83,2745.31 1737.53,2743.48 1727.22,2741.8L1728.76,2731.64C1736.14,2732.7 1743.5,2733.83 1750.86,2735.04L1758.09,2747.28Z" style="fill:rgb(0,0,114);fill-rule:nonzero;"/>
        <path d="M2316.63,3325.53C2310.28,3315.57 2303.46,3305.85 2296.25,3296.39C2298.79,3289.19 2300.87,3281.64 2302.45,3273.74L2303.64,3267.77C2313.09,3278.6 2322.1,3289.85 2330.57,3301.58C2326.64,3310.38 2321.93,3318.35 2316.63,3325.53ZM2178.41,3181.66C2169.82,3175.21 2161.08,3168.95 2152.21,3162.89C2150.79,3161.92 2149.36,3160.95 2147.93,3159.99C2144.91,3157.96 2141.87,3155.95 2138.82,3153.97C2106.03,3132.67 2071.46,3114 2035.41,3098.75C2028.7,3095.92 2021.93,3093.2 2015.11,3090.61L2004.7,3072.99C2016.84,3076.81 2028.84,3081.05 2040.7,3085.65C2079.59,3100.76 2116.95,3119.7 2152.47,3141.63C2154.23,3142.72 2155.98,3143.81 2157.73,3144.91C2160.79,3146.84 2163.84,3148.79 2166.87,3150.77C2171.32,3153.67 2175.75,3156.61 2180.15,3159.61L2178.41,3181.66Z" style="fill:rgb(178,114,65);fill-rule:nonzero;"/>
        <path d="M2015.11,3090.61C1996.62,3083.6 1977.76,3077.53 1958.61,3072.65C1955.36,3071.83 1952.1,3071.03 1948.84,3070.28L1941.13,3057.23C1945.64,3058.03 1950.13,3058.9 1954.62,3059.83C1958.66,3060.68 1962.7,3061.57 1966.72,3062.52C1979.51,3065.52 1992.18,3069.03 2004.7,3072.99L2015.11,3090.61Z" style="fill:rgb(178,153,154);fill-rule:nonzero;"/>
        <path d="M2296.25,3296.39C2281.28,3276.76 2264.62,3258.2 2246.97,3240.69C2225.56,3219.51 2202.59,3199.82 2178.41,3181.66L2180.15,3159.61C2208.98,3179.28 2236.46,3201.04 2262.11,3224.95C2276.58,3238.5 2290.53,3252.73 2303.64,3267.77L2302.45,3273.74C2300.87,3281.64 2298.79,3289.19 2296.25,3296.39Z" style="fill:rgb(124,80,80);fill-rule:nonzero;"/>
        <path d="M2325.21,3339.67C2322.46,3334.9 2319.59,3330.19 2316.63,3325.53C2321.93,3318.35 2326.64,3310.38 2330.57,3301.58C2336.45,3309.71 2342.06,3318.07 2347.38,3326.68L2325.21,3339.67ZM1948.84,3070.28C1948.25,3070.14 1947.66,3070.01 1947.08,3069.87C1935.61,3067.26 1924.05,3065.09 1912.4,3063.41L1913.72,3053.22C1922.9,3054.27 1932.04,3055.61 1941.13,3057.23L1948.84,3070.28Z" style="fill:rgb(0,0,114);fill-rule:nonzero;"/>
        <path d="M2478.41,2579.7C2469.04,2566.13 2459.28,2552.81 2449.18,2539.75L2455.46,2508.33C2465.67,2520.61 2475.57,2533.15 2485.16,2545.94L2478.41,2579.7ZM2244.71,2339.78C2213.36,2315.91 2180.89,2293.46 2147.53,2272.38C2141.09,2268.3 2134.62,2264.28 2128.11,2260.31C2106.5,2247.12 2084.53,2234.48 2062.28,2222.38C2015.7,2197.07 1967.83,2174.1 1918.98,2153.37C1923.95,2149.67 1928.39,2145.77 1932.33,2141.7C1979.4,2161.19 2025.63,2182.76 2070.77,2206.53C2097.19,2220.45 2123.25,2235.12 2148.84,2250.58C2155.61,2254.67 2162.34,2258.81 2169.04,2263.01C2195.47,2279.56 2221.37,2296.99 2246.64,2315.32L2244.71,2339.78ZM1672.57,2069.28C1628.72,2057.67 1584.44,2047.62 1539.86,2039.11C1544.58,2036.34 1549.3,2033.61 1554.07,2030.89C1593.37,2038.11 1632.47,2046.53 1671.28,2056.16C1671.75,2060.47 1672.18,2064.84 1672.57,2069.28Z" style="fill:rgb(178,114,65);fill-rule:nonzero;"/>
        <path d="M2449.18,2539.75C2436.37,2523.2 2423.01,2507.08 2409.13,2491.37C2403.06,2484.5 2396.88,2477.7 2390.62,2470.98C2362.48,2440.8 2332.49,2412.25 2301.12,2385.33C2282.77,2369.6 2263.95,2354.42 2244.71,2339.78L2246.64,2315.32C2270.07,2332.31 2292.96,2350.08 2315.22,2368.66C2351.36,2398.85 2385.87,2431.23 2418.06,2465.82C2424.67,2472.93 2431.18,2480.13 2437.6,2487.43C2443.64,2494.31 2449.6,2501.29 2455.46,2508.33L2449.18,2539.75Z" style="fill:rgb(124,80,80);fill-rule:nonzero;"/>
        <path d="M1539.86,2039.11C1531.55,2037.53 1523.23,2035.99 1514.9,2034.52L1516.62,2024.38C1529.12,2026.43 1541.6,2028.6 1554.07,2030.89C1549.3,2033.61 1544.58,2036.34 1539.86,2039.11Z" style="fill:rgb(0,0,114);fill-rule:nonzero;"/>
        <path d="M2492.04,2600.04C2487.59,2593.2 2483.05,2586.42 2478.41,2579.7L2485.16,2545.94C2494.96,2559.01 2504.42,2572.35 2513.53,2585.96L2492.04,2600.04Z" style="fill:rgb(0,0,114);fill-rule:nonzero;"/>
        <path d="M2537.21,2285.59C2527.77,2271.89 2518.06,2258.35 2508.1,2245.01L2514.28,2214.11C2524.39,2226.58 2534.27,2239.25 2543.91,2252.07L2537.21,2285.59ZM2270.9,2007.35C2250.04,1992.05 2228.63,1977.49 2206.71,1963.71C2200.22,1959.62 2193.69,1955.61 2187.12,1951.66C2189.55,1949.63 2191.92,1947.46 2194.22,1945.15C2196.4,1945.25 2198.66,1945.3 2201,1945.3C2201.75,1945.3 2202.51,1945.3 2203.28,1945.29C2206.89,1947.39 2210.49,1949.51 2214.09,1951.65C2233.88,1963.46 2253.32,1975.88 2272.35,1988.92L2270.9,2007.35Z" style="fill:rgb(178,114,65);fill-rule:nonzero;"/>
        <path d="M2508.1,2245.01C2495.85,2228.6 2483.21,2212.47 2470.17,2196.67C2463.68,2188.81 2457.09,2181.03 2450.41,2173.33C2414.97,2132.53 2376.77,2094.15 2335.71,2058.89C2314.79,2040.89 2293.16,2023.7 2270.9,2007.35L2272.35,1988.92C2298.1,2006.56 2323.11,2025.31 2347.27,2045.12C2394.56,2083.8 2438.43,2126.55 2478.92,2172.34C2486.09,2180.44 2493.15,2188.64 2500.11,2196.92C2504.88,2202.61 2509.6,2208.34 2514.28,2214.11L2508.1,2245.01ZM2201,1945.3C2198.66,1945.3 2196.4,1945.25 2194.22,1945.15C2195.28,1944.08 2196.32,1942.99 2197.35,1941.86C2199.33,1943 2201.3,1944.14 2203.28,1945.29C2202.51,1945.3 2201.75,1945.3 2201,1945.3Z" style="fill:rgb(124,80,80);fill-rule:nonzero;"/>
        <path d="M2546.36,2299.02C2543.33,2294.52 2540.29,2290.05 2537.21,2285.59L2543.91,2252.07C2551.94,2262.76 2559.81,2273.55 2567.52,2284.46L2546.36,2299.02Z" style="fill:rgb(0,0,114);fill-rule:nonzero;"/>
        <path d="M2596.69,1988.02L2594.18,1982.09L2589.79,1973.67L2581.12,1956.73L2571.14,1940.47C2570.59,1939.62 2570.04,1938.77 2569.49,1937.92L2575.58,1907.5C2580.77,1913.95 2585.79,1920.57 2590.64,1927.31L2602.19,1944.07L2604.64,1948.28L2596.69,1988.02Z" style="fill:rgb(178,114,65);fill-rule:nonzero;"/>
        <path d="M2569.49,1937.92C2556.15,1917.42 2541.06,1897.82 2523.94,1879.97C2521.28,1877.15 2518.6,1874.36 2515.88,1871.6C2507.63,1863.22 2499.07,1855.12 2490.22,1847.33C2482.58,1840.6 2474.73,1834.1 2466.67,1827.84C2457.25,1820.54 2447.55,1813.45 2437.62,1806.73C2443.35,1806.68 2449.07,1806.66 2454.8,1806.66C2457.24,1806.66 2459.65,1806.66 2462.1,1806.67C2466.63,1809.6 2471.13,1812.6 2475.6,1815.66C2489.77,1825.5 2503.46,1836.08 2516.61,1847.33C2523.79,1853.48 2530.81,1859.83 2537.66,1866.38C2539.89,1868.47 2542.09,1870.59 2544.27,1872.74C2555.35,1883.66 2565.77,1895.3 2575.58,1907.5L2569.49,1937.92Z" style="fill:rgb(124,80,80);fill-rule:nonzero;"/>
        <path d="M2437.62,1806.73C2426.03,1798.89 2414.13,1791.55 2401.97,1784.98L2406.33,1775.67C2425.82,1784.72 2444.26,1795.15 2462.1,1806.67C2459.65,1806.66 2457.24,1806.66 2454.8,1806.66C2449.07,1806.66 2443.35,1806.68 2437.62,1806.73Z" style="fill:rgb(0,0,114);fill-rule:nonzero;"/>
        <path d="M2605.74,2008.06C2602.97,2002.37 2600.41,1996.6 2597.88,1990.81L2596.69,1988.02L2604.64,1948.28L2612.46,1961.71L2617.47,1970.62L2621.7,1979.94C2624.46,1986.19 2627.19,1992.45 2629.7,1998.79L2605.74,2008.06Z" style="fill:rgb(0,0,114);fill-rule:nonzero;"/>
        <path d="M2411.22,998.766C2293.31,929.094 2136.44,947.385 2136.44,947.385C1800.72,972.818 1527.58,1142.63 1527.58,1142.63C1472.3,998.92 1536.42,877.868 1658.45,823.815C1832.01,738.164 1864.38,616.855 1747.59,588.493C1753.86,586.746 1760.18,585.102 1766.5,583.612C2020.48,523.138 2318.43,668.903 2200.56,931.406C2284.11,937.417 2357.02,961.617 2411.22,998.766Z" style="fill:rgb(255,69,198);fill-rule:nonzero;"/>
        <path d="M2673.83,1634.14C2539.31,1605.16 2398.12,1605.05 2251.74,1627.2C2246.55,1628.33 2241.67,1629.51 2237.1,1630.85C2137.31,1659.01 2188.75,1726.52 2207.19,1815.71C2212.07,1839.35 2211.87,1863.91 2204.73,1886.93C2173.59,1987.84 2050.64,1967.34 2050.64,1876.81C2050.64,1760.17 2000.23,1714.8 1940.89,1707.2C1895.16,1701.34 1850.2,1720.46 1819.32,1754.67C1731.67,1851.78 1771.95,1963.38 1847.68,2049.86C1879.9,2086.64 1875.33,2144.19 1836.02,2173.32C1786.69,2209.96 1704.64,2188.69 1693.7,2075.7C1690.72,2035.21 1684.6,2004.08 1678.28,1981.16C1667.39,1941.8 1642.98,1907.02 1608.2,1885.54C1507.08,1823.11 1411.72,1923.56 1315.28,1993.29C1164.27,1898.64 1232.09,1668.05 1353.25,1565.08C1270.73,1417.11 1351.35,1228.95 1521.62,1145.51C1525.48,1143.66 1527.58,1142.63 1527.58,1142.63C1527.58,1142.63 1800.72,972.818 2136.44,947.385C2136.44,947.385 2293.31,929.094 2411.22,998.766C2419.34,1004.32 2427.1,1010.17 2434.34,1016.29C2482.13,1056.62 2510.59,1108.77 2512.13,1167.7C2513.01,1199 2506.23,1232.19 2490.76,1266.51C2493.64,1266.51 2496.51,1266.56 2499.44,1266.71C2642.18,1273.86 2799.2,1454.97 2673.83,1634.14Z" style="fill:rgb(255,69,198);fill-rule:nonzero;"/>
        <path d="M2499.44,1266.71C2499.24,1267.54 2498.98,1268.36 2498.72,1269.18L2401.15,1266.61C2052.02,1256.34 1693.13,1330.73 1353.25,1565.08C1270.73,1417.11 1351.35,1228.95 1521.62,1145.51C1525.48,1143.66 1527.58,1142.63 1527.58,1142.63C1527.58,1142.63 1800.72,972.818 2136.44,947.385C2136.44,947.385 2293.31,929.094 2411.22,998.766C2416.57,1001.95 2421.86,1005.24 2427,1008.79C2429.51,1011.3 2431.98,1013.77 2434.34,1016.29C2482.44,1066.28 2508.02,1113.4 2512.13,1167.7C2514.45,1197.87 2510.18,1230.29 2499.44,1266.71Z" style="fill:rgb(255,69,198);fill-rule:nonzero;"/>
        <path d="M1787.27,2169.25C1779.3,2169.25 1771.34,2167.6 1763.81,2164.26C1736.27,2152.03 1718.63,2119.87 1714.21,2074.17C1711.51,2037.85 1706.08,2004.73 1698.08,1975.72C1685.49,1930.02 1657.41,1891.79 1619,1868.07C1618.44,1867.72 1617.87,1867.38 1617.3,1867.04C1633.8,1869.32 1650.41,1875.19 1667.18,1885.54C1701.97,1907.02 1726.37,1941.8 1737.27,1981.16C1743.59,2004.08 1749.7,2035.21 1752.68,2075.7C1757.03,2120.53 1772.56,2150.93 1792.8,2168.99C1790.96,2169.16 1789.11,2169.25 1787.27,2169.25Z" style="fill:rgb(255,181,232);fill-rule:nonzero;"/>
        <path d="M1539.71,1114.76C1504.37,998.455 1552.7,893.116 1666.76,842.59C1667.02,842.475 1667.28,842.355 1667.53,842.228C1779,787.239 1843.81,712.961 1836.69,648.383C1835.16,634.459 1829.22,613.857 1809.46,596.196C1814.59,595.422 1819.72,594.733 1824.86,594.127C1919.25,630.381 1881.21,742.97 1717.42,823.801C1608.61,872.04 1545.84,973.542 1572.72,1096.89C1561.67,1102.67 1550.69,1108.57 1539.71,1114.76Z" style="fill:rgb(255,181,232);fill-rule:nonzero;"/>
        <path d="M1314.82,1968.13C1266.07,1931.97 1252.32,1881.3 1249.62,1843.94C1243.15,1754.51 1292.32,1643.83 1366.54,1580.77C1368.69,1578.94 1370.38,1576.75 1371.59,1574.35C1422.3,1539.98 1474.75,1508.2 1528.76,1479.4C1526.52,1488.06 1524.66,1496.92 1523.15,1505.88C1499.23,1518.97 1475.47,1532.5 1451.88,1546.47C1389.56,1583.36 1338.89,1637.72 1309.4,1703.9C1278.51,1773.26 1265.56,1864.15 1332.38,1954.81C1326.54,1959.3 1320.67,1963.77 1314.82,1968.13ZM1678.14,1428.16C1680.32,1419.98 1682.6,1412.66 1684.73,1406.42C1741.12,1383.57 1798.8,1363.9 1857.41,1347.52C1879.25,1340.79 1901.62,1335.99 1923.79,1330.44C1932.46,1328.14 1941.21,1326.17 1949.99,1324.34C1859.73,1352.09 1768.46,1386.9 1678.14,1428.16Z" style="fill:rgb(255,181,232);fill-rule:nonzero;"/>
        <path d="M1362.22,1537.31C1337.53,1482.65 1334.53,1420.34 1354.03,1359.73C1381.23,1275.24 1447.67,1202.88 1536.33,1161.21C1540.22,1159.38 1543.29,1156.47 1545.32,1153C1564.97,1141.53 1585.74,1130.49 1606.36,1120.01C1610.94,1117.73 1615.52,1115.46 1620.11,1113.21C1614.86,1121.62 1610.26,1130.22 1606.27,1138.96C1590.02,1147.3 1573.63,1155.83 1557.1,1164.54C1506.76,1191.04 1463.04,1229.02 1431.19,1276.16C1393.3,1332.23 1362.27,1413.97 1392.49,1517.54C1382.33,1524.02 1372.24,1530.62 1362.22,1537.31ZM1800.58,1046.42C1802.98,1042.91 1805.49,1039.43 1808.09,1036.01C1814.48,1033.9 1820.9,1031.86 1827.3,1029.76C1852.37,1021.01 1877.78,1013.43 1903.08,1005.3L1917,1001.45C1880.26,1013.78 1841.32,1028.95 1800.58,1046.42Z" style="fill:rgb(255,181,232);fill-rule:nonzero;"/>
        <path d="M2124.1,1933.55C2121.36,1933.55 2118.69,1933.35 2116.12,1932.96C2095.4,1929.83 2071.19,1913.25 2071.19,1876.8C2071.19,1779.19 2037.78,1730.95 2001.28,1707.39C2060.01,1715.53 2109.62,1761.1 2109.62,1876.81C2109.62,1900.78 2118.26,1919.85 2131.53,1933.05C2129.01,1933.39 2126.53,1933.55 2124.1,1933.55Z" style="fill:rgb(255,181,232);fill-rule:nonzero;"/>
        <path d="M1542.59,1845.42C1567.63,1845.42 1593.13,1852.09 1619,1868.07C1657.41,1891.79 1685.49,1930.02 1698.08,1975.72C1706.08,2004.73 1711.51,2037.85 1714.21,2074.17C1718.63,2119.87 1736.27,2152.03 1763.81,2164.26C1783.39,2172.96 1805.82,2170.18 1823.79,2156.84C1837.59,2146.59 1846.23,2131.29 1848.1,2113.75C1850.06,2095.51 1844.26,2077.15 1832.22,2063.4C1732.32,1949.31 1722.06,1831.76 1804.07,1740.89C1840.52,1700.51 1892.64,1680.29 1943.48,1686.81C1991.18,1692.92 2071.19,1725.73 2071.19,1876.8C2071.19,1913.25 2095.4,1929.83 2116.12,1932.96C2139.46,1936.49 2171.5,1924.94 2185.11,1880.85C2190.82,1862.34 2191.51,1841.26 2187.08,1819.89C2183.19,1801.04 2177.72,1783.12 2172.42,1765.79C2159.83,1724.52 2147.92,1685.53 2166.75,1653.47C2180.05,1630.83 2205.68,1616.1 2247.38,1607.11C2247.8,1607.02 2248.22,1606.94 2248.64,1606.88C2397.59,1584.32 2537.38,1585.78 2664.39,1611.2C2705.91,1545.19 2710.26,1473.71 2676.36,1408.6C2639.69,1338.18 2561.64,1287.06 2490.76,1287.06C2483.79,1287.06 2477.29,1283.52 2473.5,1277.67C2469.71,1271.81 2469.16,1264.43 2472.02,1258.07C2499.67,1196.71 2498.05,1137.07 2467.34,1085.58C2422.71,1010.76 2322.43,960.783 2199.09,951.901C2192.39,951.42 2186.36,947.702 2182.92,941.943C2179.48,936.184 2179.06,929.106 2181.81,922.985C2220.82,836.125 2213.51,757.832 2160.68,696.565C2090.15,614.768 1946.43,575.527 1809.46,596.196C1829.22,613.857 1835.16,634.459 1836.69,648.383C1843.81,712.961 1779,787.239 1667.53,842.228C1667.28,842.355 1667.02,842.475 1666.76,842.59C1546.04,896.066 1498.94,1010.93 1546.76,1135.23C1550.64,1145.29 1546.08,1156.63 1536.33,1161.21C1447.67,1202.88 1381.23,1275.24 1354.03,1359.73C1332.37,1427.03 1338.46,1496.41 1371.18,1555.1C1375.96,1563.66 1374.02,1574.42 1366.54,1580.77C1292.32,1643.83 1243.15,1754.51 1249.62,1843.94C1252.32,1881.3 1266.07,1931.97 1314.82,1968.13C1326.12,1959.7 1337.5,1950.88 1348.59,1942.28C1408.17,1896.11 1473.59,1845.42 1542.59,1845.42ZM1787.04,2210.24C1773.43,2210.24 1759.84,2207.47 1747.13,2201.83C1722.99,2191.11 1681.29,2160.72 1673.25,2077.68C1670.71,2043.56 1665.74,2013.09 1658.45,1986.64C1648.63,1950.98 1626.95,1921.29 1597.4,1903.04C1524.46,1857.99 1451.26,1914.72 1373.77,1974.77C1358.6,1986.53 1342.92,1998.69 1327.32,2009.96C1320.53,2014.87 1311.46,2015.17 1304.37,2010.72C1246.87,1974.69 1213.77,1918.04 1208.62,1846.91C1201.53,1748.85 1249.99,1633.44 1327.65,1560.42C1296.09,1494.98 1291.49,1419.89 1314.91,1347.14C1343.82,1257.28 1411.56,1179.85 1502.13,1132.32C1480.22,1064.85 1482.08,999.142 1507.73,941.262C1534.08,881.806 1583.18,834.758 1649.72,805.183C1756.44,752.439 1800.01,690.708 1795.84,652.891C1792.88,626.117 1765.34,613.95 1742.75,608.459C1733.67,606.252 1727.23,598.197 1727.06,588.857C1726.89,579.514 1733.05,571.235 1742.04,568.705C1911.14,521.103 2100.3,563.59 2191.81,669.723C2249.42,736.53 2262.57,822.304 2229.89,913.605C2353.93,928.786 2454.68,984.116 2502.64,1064.53C2535.95,1120.37 2541.81,1183.36 2520.04,1248.14C2597.36,1259.53 2673.71,1314.52 2712.81,1389.61C2756.07,1472.68 2748.19,1563.71 2690.65,1645.93C2685.91,1652.7 2677.55,1655.98 2669.48,1654.24C2543.91,1627.19 2404.6,1624.9 2255.44,1647.42C2226.93,1653.64 2209.02,1662.68 2202.19,1674.29C2192.5,1690.79 2201.42,1719.99 2211.74,1753.79C2217.04,1771.17 2223.05,1790.86 2227.33,1811.57C2233.16,1839.7 2232.14,1867.85 2224.39,1892.97C2204.44,1957.58 2152.57,1980.02 2110,1973.61C2062.95,1966.51 2030.08,1926.7 2030.08,1876.8C2030.08,1814.1 2014.15,1737.31 1938.26,1727.58C1900.78,1722.78 1862.01,1738.05 1834.59,1768.43C1743.6,1869.24 1813.42,1979.54 1863.15,2036.32C1882.73,2058.68 1892.15,2088.5 1888.98,2118.12C1885.86,2147.21 1871.41,2172.68 1848.29,2189.84C1830.16,2203.3 1808.58,2210.24 1787.04,2210.24Z" style="fill:rgb(0,0,114);fill-rule:nonzero;"/>
        <path d="M1630.75,1390.1C1586.55,1321.43 1567.6,1223.64 1606.27,1138.96C1674.15,1104.11 1739.4,1072.66 1800.58,1046.42C1750.54,1119.56 1743.68,1210.79 1797.98,1327.63C1741.17,1345.43 1685.32,1366.3 1630.75,1390.1Z" style="fill:rgb(255,125,215);fill-rule:nonzero;"/>
        <path d="M1606.27,1138.96C1610.26,1130.22 1614.86,1121.62 1620.11,1113.21C1627.43,1109.62 1634.77,1106.06 1642.12,1102.55C1654.21,1097.05 1666.2,1091.35 1678.36,1086.02L1714.98,1070.35L1752.07,1055.81C1764.49,1051.12 1777.09,1046.92 1789.58,1042.44C1795.7,1040.16 1801.88,1038.05 1808.09,1036.01C1805.49,1039.43 1802.98,1042.91 1800.58,1046.42C1739.4,1072.66 1674.15,1104.11 1606.27,1138.96Z" style="fill:rgb(255,203,239);fill-rule:nonzero;"/>
        <path d="M1665.21,1052.53C1664.83,965.1 1728.63,905.446 1781.44,905.446C1814.67,905.446 1843.55,929.067 1849.35,984.263C1838.06,987.341 1826.84,990.628 1815.76,994.392C1789.8,1002.46 1764.45,1012.28 1739.06,1021.91L1701.27,1037.1L1665.21,1052.53Z" style="fill:rgb(255,125,215);fill-rule:nonzero;"/>
        <path d="M1598.79,1707.43C1589.8,1707.43 1580.7,1705.21 1571.51,1701C1543.68,1688.25 1525.05,1661.08 1521.26,1630.7C1516.57,1593.05 1515.98,1548.3 1523.15,1505.88C1574.26,1477.91 1626.05,1451.96 1678.14,1428.16C1668.9,1462.81 1661.48,1512.82 1675.32,1561.44C1687.59,1604.53 1677.98,1651.61 1646.87,1683.84C1631.24,1700.04 1615.19,1707.43 1598.79,1707.43Z" style="fill:rgb(255,125,215);fill-rule:nonzero;"/>
        <path d="M1523.15,1505.88C1524.66,1496.92 1526.52,1488.06 1528.76,1479.4C1552.5,1466.74 1576.54,1454.66 1600.86,1443.18C1628.47,1430.14 1656.44,1417.88 1684.73,1406.42C1682.6,1412.66 1680.32,1419.98 1678.14,1428.16C1626.05,1451.96 1574.26,1477.91 1523.15,1505.88Z" style="fill:rgb(255,203,239);fill-rule:nonzero;"/>
        <path d="M1754.9,1829.37C1762.46,1802.34 1772.34,1775.86 1785.26,1750.72C1798.16,1725.61 1814.19,1701.81 1833.89,1681.17C1853.52,1660.53 1876.96,1643.3 1902.72,1631.42C1928.47,1619.44 1956.21,1612.88 1983.87,1610.54C1988.72,1610.12 1992.98,1613.72 1993.39,1618.57C1993.78,1623.19 1990.54,1627.28 1986.03,1628.01L1985.81,1628.04C1960.19,1632.14 1935.47,1640.03 1913.34,1652.37C1891.19,1664.64 1871.8,1681.25 1855.82,1700.7C1839.8,1720.15 1827.08,1742.31 1817.14,1765.72C1807.19,1789.14 1799.96,1813.83 1794.87,1838.94L1794.86,1838.99C1792.61,1850.12 1781.76,1857.32 1770.62,1855.07C1759.49,1852.81 1752.29,1841.96 1754.55,1830.83C1754.64,1830.35 1754.77,1829.83 1754.9,1829.37Z" style="fill:rgb(0,0,114);fill-rule:nonzero;"/>
        <path d="M1343.02,1550.3C1419.98,1497.5 1501.03,1450.52 1585.5,1410.66C1669.94,1370.76 1757.78,1338.01 1847.73,1312.88C1870.07,1306.02 1892.91,1301.09 1915.56,1295.43C1926.89,1292.64 1938.22,1289.83 1949.7,1287.7L1984,1280.62L2001.14,1277.04C2006.87,1275.95 2012.64,1275.05 2018.38,1274.04L2052.93,1268.33C2058.7,1267.42 2064.44,1266.37 2070.23,1265.63L2087.63,1263.74C2099.23,1262.46 2110.83,1261.2 2122.45,1260.15C2215.41,1252.17 2308.82,1251.35 2401.38,1258.92C2405.63,1259.26 2408.79,1262.99 2408.44,1267.24C2408.12,1271.2 2404.81,1274.21 2400.93,1274.32C2308.77,1276.59 2217.05,1282.4 2126.36,1295.1C2103.77,1298.79 2081,1301.03 2058.49,1305.06L2024.62,1310.38C2018.98,1311.26 2013.31,1312.04 2007.68,1313.01L1990.86,1316.27C1968.47,1320.83 1945.89,1324.58 1923.79,1330.44C1901.62,1335.99 1879.25,1340.79 1857.41,1347.52C1769.39,1372.11 1683.49,1404.14 1600.86,1443.18C1518.21,1482.18 1438.87,1528.16 1363.44,1579.91L1363.37,1579.96C1355.18,1585.58 1343.99,1583.49 1338.37,1575.3C1332.75,1567.11 1334.83,1555.92 1343.02,1550.3Z" style="fill:rgb(0,0,114);fill-rule:nonzero;"/>
        <path d="M1518.09,1127.34C1542.1,1112.91 1565.8,1100.31 1590.14,1087.91C1602.3,1081.84 1614.51,1075.88 1626.77,1070.02C1639.12,1064.4 1651.39,1058.57 1663.83,1053.12L1701.27,1037.1L1739.06,1021.91C1764.45,1012.28 1789.8,1002.46 1815.76,994.392C1841.5,985.645 1868.04,979.475 1894.28,972.508L1934.11,963.806C1940.76,962.418 1947.37,960.891 1954.04,959.621L1974.13,956.197C2027.55,946.339 2081.84,941.892 2135.87,939.722C2140.12,939.549 2143.71,942.859 2143.88,947.112C2144.04,951.051 2141.21,954.418 2137.41,955.03L2137.03,955.091C2123.82,957.234 2110.62,959.247 2097.45,961.211L2077.69,964.188C2071.13,965.318 2064.62,966.793 2058.07,967.988L2018.89,975.566C2005.9,978.446 1993,981.77 1980.07,984.821L1960.68,989.365C1954.25,991.007 1947.87,992.907 1941.46,994.663L1903.08,1005.3C1877.78,1013.43 1852.37,1021.01 1827.3,1029.76C1814.7,1033.9 1802.02,1037.8 1789.58,1042.44C1777.09,1046.92 1764.49,1051.12 1752.07,1055.81L1714.98,1070.35L1678.36,1086.02C1666.2,1091.35 1654.21,1097.05 1642.12,1102.55C1630.15,1108.27 1618.23,1114.09 1606.36,1120.01C1582.83,1131.97 1559.1,1144.65 1537.08,1157.88L1536.61,1158.16C1528.1,1163.28 1517.05,1160.52 1511.94,1152.01C1506.82,1143.5 1509.58,1132.45 1518.09,1127.34Z" style="fill:rgb(0,0,114);fill-rule:nonzero;"/>
        <path d="M2143.85,946.7C2151.86,946.065 2165.97,945.217 2184.22,945.217C2165.97,945.218 2151.86,946.065 2143.85,946.7ZM2185.34,945.218C2184.97,945.217 2184.6,945.217 2184.23,945.217C2184.6,945.217 2184.97,945.217 2185.34,945.218Z" style="fill:rgb(161,134,212);fill-rule:nonzero;"/>
        <path d="M2009.4,950.458C2097.52,770.579 1984.73,622.165 1834.75,593.062C1850.66,591.514 1866.57,590.755 1882.4,590.755C1929.93,590.755 1976.56,597.611 2018.96,610.595C2139.78,667.069 2210.46,779.742 2142.35,931.406C2155.31,932.338 2168.01,933.707 2180.42,935.493C2180.88,937.74 2181.71,939.922 2182.92,941.943C2183.62,943.124 2184.44,944.219 2185.34,945.218C2184.97,945.217 2184.6,945.217 2184.23,945.217L2184.22,945.217C2165.97,945.217 2151.86,946.065 2143.85,946.7C2143.48,942.752 2140.16,939.715 2136.19,939.715C2136.08,939.715 2135.97,939.717 2135.87,939.722C2093.69,941.416 2051.35,944.498 2009.4,950.458Z" style="fill:rgb(178,48,173);fill-rule:nonzero;"/>
        <path d="M2633.29,1605.5C2575.32,1595.82 2514.85,1590.98 2452.16,1590.98C2389.63,1590.98 2324.9,1595.8 2258.33,1605.44C2337.02,1493.26 2268.02,1336 2158.56,1290.88C2238.73,1281.08 2319.66,1276.32 2400.93,1274.32C2404.81,1274.21 2408.12,1271.2 2408.44,1267.24C2408.46,1267.09 2408.46,1266.95 2408.47,1266.8L2455.82,1268.05C2460.75,1268.7 2465.69,1269.54 2470.62,1270.58C2471.12,1273.06 2472.08,1275.47 2473.5,1277.67C2477.29,1283.52 2483.79,1287.06 2490.76,1287.06C2503.16,1287.06 2515.76,1288.62 2528.34,1291.58C2629.26,1344.32 2704.55,1472.88 2633.29,1605.5Z" style="fill:rgb(178,48,173);fill-rule:nonzero;"/>
        <path d="M2000.57,1277.16C2093.84,1178.66 2040.71,1033.05 1950.29,992.187C1953.75,991.213 1957.21,990.252 1960.68,989.365L1980.07,984.821C1993,981.77 2005.9,978.446 2018.89,975.566L2058.07,967.988C2064.62,966.793 2071.13,965.318 2077.69,964.188L2097.45,961.211C2110.62,959.247 2123.82,957.234 2137.03,955.091L2137.41,955.03C2141.21,954.418 2144.04,951.051 2143.88,947.112C2143.87,946.973 2143.86,946.836 2143.85,946.7C2151.86,946.065 2165.98,945.217 2184.23,945.217C2184.6,945.217 2184.97,945.217 2185.34,945.218C2188.86,949.091 2193.77,951.519 2199.09,951.901C2236,954.559 2270.84,960.897 2302.75,970.48C2427.3,1027.58 2489.96,1139.08 2432.55,1266.51C2440.26,1266.51 2448.03,1267.03 2455.82,1268.05L2408.47,1266.8C2408.57,1262.74 2405.49,1259.25 2401.38,1258.92C2358.15,1255.38 2314.73,1253.68 2271.26,1253.68C2221.66,1253.68 2171.99,1255.9 2122.45,1260.15C2110.83,1261.2 2099.23,1262.46 2087.63,1263.74L2070.23,1265.63C2064.44,1266.37 2058.7,1267.42 2052.93,1268.33L2018.38,1274.04C2012.64,1275.05 2006.87,1275.95 2001.14,1277.04L2000.57,1277.16Z" style="fill:rgb(178,48,173);fill-rule:nonzero;"/>
        <path d="M2237.1,1630.85C2240.54,1627.35 2243.83,1623.76 2246.96,1620.11C2251.05,1615.32 2254.83,1610.43 2258.33,1605.44C2324.9,1595.8 2389.63,1590.98 2452.16,1590.98C2514.85,1590.98 2575.32,1595.82 2633.29,1605.5C2629.89,1611.82 2626.17,1618.14 2622.09,1624.48C2566.76,1615.63 2510.38,1611.41 2452.99,1611.41C2443.07,1611.41 2433.13,1611.54 2423.14,1611.79C2366.88,1613.17 2309.75,1618.41 2251.74,1627.2C2246.55,1628.33 2241.67,1629.51 2237.1,1630.85ZM2528.34,1291.58C2515.76,1288.62 2503.16,1287.06 2490.76,1287.06C2483.79,1287.06 2477.29,1283.52 2473.5,1277.67C2472.08,1275.47 2471.12,1273.06 2470.62,1270.58C2490.22,1274.7 2509.72,1281.85 2528.34,1291.58ZM2302.75,970.48C2270.84,960.897 2236,954.559 2199.09,951.901C2193.77,951.519 2188.86,949.091 2185.34,945.218C2184.44,944.219 2183.62,943.124 2182.92,941.943C2181.71,939.922 2180.88,937.74 2180.42,935.493C2225.44,941.971 2266.69,953.948 2302.75,970.48ZM2018.96,610.595C1976.56,597.611 1929.93,590.755 1882.4,590.755C1866.57,590.755 1850.66,591.514 1834.75,593.062C1817.22,589.659 1799.19,587.892 1780.9,587.892C1774.77,587.892 1768.62,588.09 1762.44,588.493C1762.44,588.493 1763.83,586.797 1766.5,583.612C1795.33,576.778 1824.72,572.513 1854,570.818L1854.16,570.818C1913.36,574.185 1970.24,587.823 2018.96,610.595Z" style="fill:rgb(0,0,114);fill-rule:nonzero;"/>
        <path d="M1974.03,1300.83C1979.88,1296.41 1985.38,1291.84 1990.47,1287.11C1994.01,1283.85 1997.38,1280.53 2000.57,1277.16L2001.14,1277.04C2006.87,1275.95 2012.64,1275.05 2018.38,1274.04L2052.93,1268.33C2058.7,1267.42 2064.44,1266.37 2070.23,1265.63L2087.63,1263.74C2099.23,1262.46 2110.83,1261.2 2122.45,1260.15C2171.99,1255.9 2221.66,1253.68 2271.26,1253.68C2314.73,1253.68 2358.15,1255.38 2401.38,1258.92C2405.49,1259.25 2408.57,1262.74 2408.47,1266.8C2408.46,1266.95 2408.46,1267.09 2408.44,1267.24C2408.12,1271.2 2404.81,1274.21 2400.93,1274.32C2319.66,1276.32 2238.73,1281.08 2158.56,1290.88C2138.98,1282.81 2118.12,1278.33 2096.57,1278.33L2074.06,1282.44L1974.03,1300.83Z" style="fill:rgb(0,0,114);fill-rule:nonzero;"/>
        <path d="M1950.29,992.187C1943.9,989.299 1937.33,986.938 1930.61,985.15L1998.48,971.072C2002.42,964.156 2006.05,957.288 2009.4,950.458C2051.35,944.498 2093.69,941.416 2135.87,939.722C2135.97,939.717 2136.08,939.715 2136.19,939.715C2140.16,939.715 2143.48,942.752 2143.85,946.7C2143.86,946.836 2143.87,946.973 2143.88,947.112C2144.04,951.051 2141.21,954.418 2137.41,955.03L2137.03,955.091C2123.82,957.234 2110.62,959.247 2097.45,961.211L2077.69,964.188C2071.13,965.318 2064.62,966.793 2058.07,967.988L2018.89,975.566C2005.9,978.446 1993,981.77 1980.07,984.821L1960.68,989.365C1957.21,990.252 1953.75,991.213 1950.29,992.187Z" style="fill:rgb(0,0,114);fill-rule:nonzero;"/>
        <path d="M1790.41,1878.5C1789.82,1842.55 1801.7,1804.88 1834.59,1768.43C1858.68,1741.74 1891.52,1726.71 1924.56,1726.71C1929.13,1726.71 1933.71,1727 1938.26,1727.58C1939.07,1727.69 1939.88,1727.8 1940.68,1727.92C1908.86,1745.33 1862.81,1782.84 1874.49,1850.81C1846.05,1859.43 1818.02,1868.66 1790.41,1878.5Z" style="fill:rgb(178,114,65);fill-rule:nonzero;"/>
        <path d="M1859.29,2180.42C1870.96,2168.9 1879.55,2154.86 1884.55,2139.2C1896.08,2143.8 1907.56,2148.53 1918.98,2153.37C1904.09,2164.47 1884.48,2173.81 1859.29,2180.42ZM1932.33,2141.7C1917.69,2135.64 1902.96,2129.78 1888.17,2124.11C1888.49,2122.14 1888.76,2120.14 1888.98,2118.12C1890.46,2104.28 1889.19,2090.4 1885.42,2077.25C1906.11,2062.2 1927.29,2047.82 1948.92,2034.17C1963.69,2068.61 1963.07,2110.05 1932.33,2141.7ZM1879.52,2061.46C1875.3,2052.41 1869.81,2043.93 1863.15,2036.32C1838.46,2008.12 1808.81,1966.73 1796.36,1919.86C1816.81,1912.45 1837.53,1905.38 1858.48,1898.67C1863.57,1920.23 1877.41,1956.86 1914.86,1987.99C1924.92,1996.36 1933.92,2006.94 1941.08,2018.86C1920.11,2032.4 1899.57,2046.62 1879.52,2061.46Z" style="fill:rgb(178,114,65);fill-rule:nonzero;"/>
        <path d="M1796.36,1919.86C1792.8,1906.46 1790.65,1892.61 1790.41,1878.5C1818.02,1868.66 1846.05,1859.43 1874.49,1850.81C1875.66,1857.62 1877.41,1864.74 1879.81,1872.17L1855.54,1880.14C1855.54,1880.14 1855.8,1887.31 1858.48,1898.67C1837.53,1905.38 1816.81,1912.45 1796.36,1919.86Z" style="fill:rgb(0,0,114);fill-rule:nonzero;"/>
        <path d="M1885.42,2077.25C1883.87,2071.84 1881.9,2066.56 1879.52,2061.46C1899.57,2046.62 1920.11,2032.4 1941.08,2018.86C1944.02,2023.76 1946.65,2028.89 1948.92,2034.17C1927.29,2047.82 1906.11,2062.2 1885.42,2077.25Z" style="fill:rgb(124,80,80);fill-rule:nonzero;"/>
        <path d="M1918.98,2153.37C1907.56,2148.53 1896.08,2143.8 1884.55,2139.2C1886.11,2134.32 1887.32,2129.28 1888.17,2124.11C1902.96,2129.78 1917.69,2135.64 1932.33,2141.7C1928.39,2145.77 1923.95,2149.67 1918.98,2153.37Z" style="fill:rgb(124,80,80);fill-rule:nonzero;"/>
        <path d="M1842.04,2184.34C1884.63,2149.09 1897.07,2088.79 1843.23,2029.45C1794.43,1979.85 1774.62,1913.74 1780.46,1854.66C1787.56,1852.58 1793.29,1846.74 1794.86,1838.99L1794.87,1838.94C1799.96,1813.83 1807.19,1789.14 1817.14,1765.72C1818.23,1763.15 1819.36,1760.59 1820.52,1758.05C1845.76,1729.61 1882.26,1711.52 1928.93,1711.52C1941.48,1711.52 1954.75,1712.82 1968.76,1715.59C1968.76,1715.59 1956.47,1719.28 1940.68,1727.92C1939.88,1727.8 1939.07,1727.69 1938.26,1727.58C1933.71,1727 1929.13,1726.71 1924.56,1726.71C1891.52,1726.71 1858.68,1741.74 1834.59,1768.43C1801.7,1804.88 1789.82,1842.55 1790.41,1878.5C1790.65,1892.61 1792.8,1906.46 1796.36,1919.86C1808.81,1966.73 1838.46,2008.12 1863.15,2036.32C1869.81,2043.93 1875.3,2052.41 1879.52,2061.46C1881.9,2066.56 1883.87,2071.84 1885.42,2077.25C1889.19,2090.4 1890.46,2104.28 1888.98,2118.12C1888.76,2120.14 1888.49,2122.14 1888.17,2124.11C1887.32,2129.28 1886.11,2134.32 1884.55,2139.2C1879.55,2154.86 1870.96,2168.9 1859.29,2180.42C1853.81,2181.86 1848.06,2183.17 1842.04,2184.34Z" style="fill:rgb(0,0,114);fill-rule:nonzero;"/>
        <path d="M1780.46,1854.66C1784.1,1817.82 1797.73,1783.72 1820.52,1758.05C1819.36,1760.59 1818.23,1763.15 1817.14,1765.72C1807.19,1789.14 1799.96,1813.83 1794.87,1838.94L1794.86,1838.99C1793.29,1846.74 1787.56,1852.58 1780.46,1854.66Z" style="fill:rgb(0,0,114);fill-rule:nonzero;"/>
    </g>
</svg>
